<?xml version="1.0" encoding="utf-8"?>
<!-- Generator: Adobe Illustrator 22.0.0, SVG Export Plug-In . SVG Version: 6.00 Build 0)  -->
<svg version="1.1" id="Capa_1" xmlns="http://www.w3.org/2000/svg" xmlns:xlink="http://www.w3.org/1999/xlink" x="0px" y="0px"
	 viewBox="0 0 375.2 375.2" style="enable-background:new 0 0 375.2 375.2;" xml:space="preserve">
<style type="text/css">
	.st0{fill:#FFFFFF;}
</style>
<g>
	<g>
		<g>
			<path class="st0" d="M177.6,72.4c21.8,0,42.8,6.6,60.7,19.1c15.8,11,28.2,25.8,35.9,42.8l1.6,3.4l3.7-0.5c2.4-0.3,5-0.3,7.7-0.3
				c22.4,0,43.3,8.6,58.8,24.1c15.6,16,24.2,36.9,24.2,58.9c0,22.4-8.6,43.3-24.1,58.8c-16,15.6-36.9,24.2-58.9,24.2H77.6
				c-19.1,0-37.4-7.4-51.3-21C12.8,268.3,5,249.6,5,230.6c0-19.3,7.6-37.5,21.3-51.3c11.5-11.5,26.7-18.8,43-20.6l3.5-0.4l0.8-3.4
				c5.2-22.3,17.1-42,34.4-56.9C128,81.3,152,72.4,177.6,72.4 M80.2,167.2h-0.1l-1.3,0.8c-0.2,0.1-0.8,0.4-1.6,0.4
				c-16.3,0-31.8,6.5-43.5,18.3l0,0l0,0c-11.5,11.9-17.8,27.2-17.8,43.1c0,16.3,6.5,31.7,18.2,43.5c11.2,11.6,27.1,18.3,43.6,18.3
				H286c19.4,0,37.6-7.5,51.1-21.1c13.6-13.6,21.1-31.7,21.1-51.1s-7.5-37.6-21.1-51.1c-13.6-13.6-31.7-21.1-51.1-21.1
				c-10.5,0-20.8,2.2-29.7,6.5c-9.4,4.3-17.6,10.3-24.4,18c-0.9,1-2.3,1.6-3.8,1.6c-1.3,0-2.6-0.4-3.6-1.3c-1.9-1.8-2.1-5.1-0.2-7.4
				c7.5-8.6,16.8-15.5,27.6-20.6c1.3-0.4,2.5-0.9,3.7-1.4c1.1-0.5,2.2-0.9,3.3-1.3l5.5-1.8l-2.7-5.2c-6.9-13.4-17.1-24.9-30.4-34.2
				c-16.1-11.3-35.1-17.3-54.9-17.3c-22.7,0-44.8,8.2-62.4,23.2c-17.7,15.1-29.3,35.8-32.5,58.3l0,0l0,0
				C81.3,165.5,80.9,166.5,80.2,167.2 M177.6,67.4c-27.6,0-52.8,10-72.8,26.8c-17.6,15.2-30.4,35.6-36,59.6c-18,2-34,10-46,22
				C8.8,189.8,0,209,0,230.6c0,21.2,8.8,40.8,22.8,54.8c14,13.6,33.2,22.4,54.8,22.4h209.6c24.4,0,46.4-10,62.4-25.6
				c16-16,25.6-38,25.6-62.4s-10-46.4-25.6-62.4c-16-16-38-25.6-62.4-25.6c-2.8,0-5.6,0-8.4,0.4c-8.4-18.4-21.6-33.6-37.6-44.8
				C222.8,74.6,200.8,67.4,177.6,67.4L177.6,67.4z M77.6,286.6c-15.6,0-30-6.4-40-16.8c-10.4-10.4-16.8-24.4-16.8-40
				c0-15.2,6.4-29.2,16.4-39.6c10.4-10.4,24.4-16.8,40-16.8c1.6,0,3.2-0.4,4.4-1.2H82c2.4-1.6,4-4,4.4-7.2
				c3.2-22.4,14.8-41.6,30.8-55.2c16-13.6,36.8-22,59.2-22c19.2,0,37.2,6,52,16.4c12,8.4,22,19.2,28.8,32.4c-2.4,0.8-4.8,2-7.2,2.8
				c-11.2,5.2-21.2,12.4-29.6,22c-3.6,4.4-3.2,10.8,0.8,14.4c2,1.7,4.5,2.5,6.9,2.5c2.8,0,5.6-1.1,7.5-3.3
				c6.4-7.2,14-12.8,22.8-16.8c8.4-4,18-6,27.6-6c18.8,0,35.6,7.6,47.6,19.6c12.4,12.4,19.6,29.2,19.6,47.6
				c0,18.8-7.6,35.6-19.6,47.6c-12.4,12.4-29.2,19.6-47.6,19.6H77.6L77.6,286.6z"/>
		</g>
	</g>
</g>
</svg>
