<?xml version="1.0" encoding="utf-8"?>
<!-- Generator: Adobe Illustrator 22.0.0, SVG Export Plug-In . SVG Version: 6.00 Build 0)  -->
<svg version="1.1" id="Capa_1" xmlns="http://www.w3.org/2000/svg" xmlns:xlink="http://www.w3.org/1999/xlink" x="0px" y="0px"
	 viewBox="0 0 512 512" style="enable-background:new 0 0 512 512;" xml:space="preserve">
<style type="text/css">
	.st0{fill:#FFFFFF;}
</style>
<g>
	<g>
		<g>
			<path class="st0" d="M160.3,28L230,148.7h-10.4h-17.3l8.7,15l45.8,79.4l8,13.8l3,5.2H251h-17.3l8.7,15l61,105.6h-286l61-105.6
				l8.7-15H69.6H52.9l56.8-98.4l8.7-15H101H90.6L160.3,28 M160.3,8l-87,150.7H101L35.5,272.1h34.1L0,392.7h320.6L251,272.1h34.1
				l-11.7-20.2l-8-13.8l-45.8-79.4h27.7L160.3,8L160.3,8z"/>
		</g>
	</g>
</g>
<g>
	<g>
		<g>
			<path class="st0" d="M202.8,433.1V494h-85v-60.9h5.2h15.2h44.2h15.2H202.8 M212.8,423.1h-15.2h-15.2h-44.2H123h-15.2V504h105
				V423.1L212.8,423.1z"/>
		</g>
	</g>
</g>
<g>
	<g>
		<g>
			<path class="st0" d="M366.7,82.7l91.9,159.2h-3h-17.3l8.7,15l39.2,67.9h-7.6h-17.3l8.7,15l24.7,42.9h-0.2h-133l-40.5-70.2h16.8
				H355l-8.7-15l-27-46.8l-8.8-15.2l-2.2-3.8l-8-13.8l-5.9-10.2l7.9-13.6l3.1-5.4L366.7,82.7 M366.7,62.7l-69.8,121l-3.1,5.4
				L283,207.7l8.8,15.2l8,13.8l2.2,3.8l8.8,15.2l27,46.8h-34.1l7.9,13.8l44.1,76.4l0,0.1h138.7H512l-33.4-57.9h24.9l-47.9-82.9h20.3
				L366.7,62.7L366.7,62.7z"/>
		</g>
	</g>
</g>
<g>
	<g>
		<g>
			<path class="st0" d="M402.1,433.1v39.2h-71.9v-39.1h5.2h15.2h10v-0.1h12.7h8.4h15.2H402.1 M412.1,423.1h-15.2h-15.2h-8.4h-22.7
				v0.1h-15.2h-15.2v59.1h91.9V423.1L412.1,423.1L412.1,423.1z"/>
		</g>
	</g>
</g>
</svg>
