<?xml version="1.0" encoding="utf-8"?>
<!-- Generator: Adobe Illustrator 22.0.0, SVG Export Plug-In . SVG Version: 6.00 Build 0)  -->
<svg version="1.1" id="Capa_1" xmlns="http://www.w3.org/2000/svg" xmlns:xlink="http://www.w3.org/1999/xlink" x="0px" y="0px"
	 viewBox="0 0 313 313" style="enable-background:new 0 0 313 313;" xml:space="preserve">
<style type="text/css">
	.st0{fill:#FFFFFF;}
</style>
<g>
	<g>
		<g>
			<path class="st0" d="M120.1,5.5c1.2,0,2.4,0.4,3.7,1.3c2.2,1.9,2.6,5.1,0.8,7.2c-8.7,10.3-15.4,22.4-20.1,36
				c-4.4,13.3-6.7,26.8-6.7,40.4c0,16.5,3.2,32.6,9.6,47.7c6.2,14.7,15,27.8,26.2,39s24.3,20,39,26.2c15.2,6.4,31.2,9.6,47.7,9.6
				c15.1,0,29.3-2.5,42.2-7.5c13.3-4.8,25.7-12.1,36.9-21.5c1.2-0.8,2.5-1.3,3.7-1.3c0.4,0,0.8,0.1,1.3,0.2l0.1,0l0.1,0
				c1.3,0.3,2.3,1,2.9,2c0.7,1.2,0.8,2.7,0.2,4.3l-0.1,0.2l-0.1,0.2c-8,33.6-27.3,63.7-54.2,84.8c-27.7,21.6-60.5,32.9-94.9,32.9
				c-41,0-79.5-16-108.5-44.9C21,233.5,5,195,5,154.1c0-33.8,11-66,31.8-93.3c20.9-26.8,50-46.3,82.1-55
				C119.3,5.6,119.7,5.5,120.1,5.5L120.1,5.5 M159.2,296.3c16.4,0,32.4-2.8,47.7-8.2c14.7-5.2,28.3-12.8,40.6-22.5
				c16.6-13,30.3-29.6,40.6-49.2l7.1-13.7l-13.8,6.9c-4.6,2.3-9.5,4.2-14.7,6.2c-14.2,5.4-29.6,8.1-45.8,8.1
				c-17.9,0-35.3-3.5-51.8-10.5c-15.9-6.7-30.1-16.3-42.3-28.4c-12.1-12.1-21.7-26.4-28.4-42.3c-7-16.5-10.5-33.9-10.5-51.8
				c0-15.7,2.5-30.5,7.3-43.9l0-0.1l0-0.1c1.5-4.6,3.4-8.7,5.4-13.1l5.9-13l-12.8,6.5C75.2,36.7,59.2,50,46,67
				c-19.3,24.8-29.4,54.8-29.4,86.7c0,19.2,3.8,37.9,11.3,55.5c7.2,16.9,17.5,32.2,30.6,45.2s28.3,23.4,45.2,30.6
				C121.3,292.5,140,296.3,159.2,296.3 M120.1,0.5c-0.8,0-1.6,0.1-2.5,0.3c-34,9.2-63.6,29.6-84.8,56.8C12.4,84.5,0,117.7,0,154.1
				c0,43.6,17.6,83.2,46.4,112s68.4,46.4,112,46.4c36.8,0,70.8-12.8,98-34c27.6-21.6,47.6-52.4,56-87.6c2-6-1.2-11.6-6.8-12.8
				c-0.8-0.2-1.7-0.3-2.5-0.3c-2.4,0-4.7,0.8-6.7,2.3c-10.4,8.8-22.4,16-35.6,20.8c-12.4,4.8-26,7.2-40.4,7.2
				c-32.4,0-62-13.2-83.2-34.4s-34.4-50.8-34.4-83.2c0-13.6,2.4-26.8,6.4-38.8c4.4-12.8,10.8-24.4,19.2-34.4
				c3.6-4.4,2.8-10.8-1.6-14.4C124.7,1.4,122.4,0.5,120.1,0.5L120.1,0.5z M96,31.7c-2,4.4-4,8.8-5.6,13.6
				c-5.2,14.4-7.6,29.6-7.6,45.6c0,38,15.6,72.8,40.4,97.6s59.6,40.4,97.6,40.4c16.8,0,32.8-2.8,47.6-8.4c5.2-2,10.4-4,15.2-6.4
				c-9.6,18.4-22.8,34.8-39.2,47.6c-23.2,18.4-52.8,29.6-85.2,29.6c-38,0-72.4-15.6-97.2-40.4s-40.4-59.2-40.4-97.2
				c0-31.6,10.4-60.4,28.4-83.6C62.4,54.1,78,40.9,96,31.7L96,31.7z"/>
		</g>
	</g>
</g>
</svg>
