<?xml version="1.0" encoding="utf-8"?>
<!-- Generator: Adobe Illustrator 22.0.0, SVG Export Plug-In . SVG Version: 6.00 Build 0)  -->
<svg version="1.1" id="Capa_1" xmlns="http://www.w3.org/2000/svg" xmlns:xlink="http://www.w3.org/1999/xlink" x="0px" y="0px"
	 viewBox="0 0 227.7 227.7" style="enable-background:new 0 0 227.7 227.7;" xml:space="preserve">
<style type="text/css">
	.st0{fill:#FFFFFF;}
</style>
<g>
	<g>
		<path class="st0" d="M106.5,19.4c23.6,0,45.6,14.4,54.6,35.8l1.4,3.3l3.5-0.2c1.1-0.1,2.2-0.1,3.3-0.1c29.5,0,53.4,23.5,53.4,52.3
			c0,28.8-24,52.3-53.4,52.3H46c-22.6,0-41-18-41-40.1c0-20.8,16.6-38.4,37.8-40l4.7-0.4l0-4.7l0-0.3
			C47.4,45.3,73.9,19.4,106.5,19.4 M50.5,87.7c-0.1,0-0.2,0-0.3,0c-1.7-0.2-3-0.3-4.3-0.3c-19.8,0-36,15.8-36,35.1
			c0,19.4,16.1,35.1,36,35.1h123.3c26.7,0,48.4-21.2,48.4-47.3c0-26.1-21.7-47.3-48.4-47.3c-2.7,0-5.5,0.2-8.2,0.7
			c-0.1,0-0.3,0-0.4,0c-1.1,0-2.1-0.7-2.4-1.8c-6.8-22.2-28.1-37.7-51.8-37.7c-29.8,0-54.1,23.7-54.1,52.8c0,2.5,0.2,5.1,0.6,7.7
			c0.1,0.8-0.1,1.6-0.7,2.1C51.9,87.5,51.2,87.7,50.5,87.7 M106.5,14.4c-35.3,0-64.1,28.2-64.1,62.8c0,0.1,0,0.2,0,0.4
			C18.7,79.4,0,98.8,0,122.6c0,24.9,20.6,45.1,46,45.1h123.3c32.2,0,58.4-25.7,58.4-57.3s-26.2-57.3-58.4-57.3c-1.2,0-2.4,0-3.6,0.1
			C155.9,30.1,132.4,14.4,106.5,14.4L106.5,14.4z M50.5,92.7c2,0,4-0.8,5.4-2.3c1.6-1.7,2.4-4,2-6.3c-0.3-2.4-0.5-4.7-0.5-7
			c0-26.4,22-47.8,49.1-47.8c21.5,0,40.9,14,47,34.1c1,3.2,3.9,5.3,7.2,5.3c0.4,0,0.8,0,1.3-0.1c2.4-0.4,4.9-0.6,7.4-0.6
			c23.9,0,43.4,19,43.4,42.3c0,23.3-19.5,42.3-43.4,42.3H46c-17.1,0-31-13.5-31-30.1c0-16.6,13.9-30.1,31-30.1
			c1.1,0,2.2,0.1,3.7,0.2C50,92.7,50.3,92.7,50.5,92.7L50.5,92.7z"/>
	</g>
	<g>
		<path class="st0" d="M52.9,181.9c0.4,0,1.1,0.1,1.8,0.7c1,1,1,2.6,0,3.5l-21.5,21.5c-0.6,0.6-1.4,0.7-1.8,0.7s-1.1-0.1-1.8-0.7
			c-1-1-1-2.6,0-3.5l21.5-21.5C51.7,181.9,52.5,181.9,52.9,181.9 M52.9,176.9c-1.9,0-3.8,0.7-5.3,2.2l-21.5,21.5
			c-2.9,2.9-2.9,7.7,0,10.6c1.5,1.5,3.4,2.2,5.3,2.2s3.8-0.7,5.3-2.2l21.5-21.5c2.9-2.9,2.9-7.7,0-10.6
			C56.7,177.6,54.8,176.9,52.9,176.9L52.9,176.9z"/>
	</g>
	<g>
		<path class="st0" d="M98.7,181.9c0.4,0,1.1,0.1,1.8,0.7c0.6,0.6,0.7,1.4,0.7,1.8c0,0.4-0.1,1.1-0.7,1.8L79,207.6
			c-0.6,0.6-1.4,0.7-1.8,0.7c-0.4,0-1.1-0.1-1.8-0.7c-0.6-0.6-0.7-1.4-0.7-1.8c0-0.4,0.1-1.1,0.7-1.8l21.5-21.5
			C97.6,181.9,98.3,181.9,98.7,181.9 M98.7,176.9c-1.9,0-3.8,0.7-5.3,2.2l-21.5,21.5c-2.9,2.9-2.9,7.7,0,10.6
			c1.5,1.5,3.4,2.2,5.3,2.2c1.9,0,3.8-0.7,5.3-2.2l21.5-21.5c2.9-2.9,2.9-7.7,0-10.6C102.5,177.6,100.6,176.9,98.7,176.9L98.7,176.9
			z"/>
	</g>
	<g>
		<path class="st0" d="M144.5,181.9c0.4,0,1.1,0.1,1.8,0.7c0.6,0.6,0.7,1.4,0.7,1.8c0,0.4-0.1,1.1-0.7,1.8l-21.5,21.5
			c-0.6,0.6-1.4,0.7-1.8,0.7c-0.4,0-1.1-0.1-1.8-0.7c-0.6-0.6-0.7-1.4-0.7-1.8c0-0.4,0.1-1.1,0.7-1.8l21.5-21.5
			C143.4,181.9,144.1,181.9,144.5,181.9 M144.5,176.9c-1.9,0-3.8,0.7-5.3,2.2l-21.5,21.5c-2.9,2.9-2.9,7.7,0,10.6
			c1.5,1.5,3.4,2.2,5.3,2.2c1.9,0,3.8-0.7,5.3-2.2l21.5-21.5c2.9-2.9,2.9-7.7,0-10.6C148.4,177.6,146.4,176.9,144.5,176.9
			L144.5,176.9z"/>
	</g>
	<g>
		<path class="st0" d="M190.4,181.9c0.4,0,1.1,0.1,1.8,0.7c1,1,1,2.6,0,3.5l-21.5,21.5c-0.6,0.6-1.4,0.7-1.8,0.7s-1.1-0.1-1.8-0.7
			c-1-1-1-2.6,0-3.5l21.5-21.5C189.2,181.9,190,181.9,190.4,181.9 M190.4,176.9c-1.9,0-3.8,0.7-5.3,2.2l-21.5,21.5
			c-2.9,2.9-2.9,7.7,0,10.6c1.5,1.5,3.4,2.2,5.3,2.2c1.9,0,3.8-0.7,5.3-2.2l21.5-21.5c2.9-2.9,2.9-7.7,0-10.6
			C194.2,177.6,192.3,176.9,190.4,176.9L190.4,176.9z"/>
	</g>
</g>
</svg>
