<?xml version="1.0" encoding="utf-8"?>
<!-- Generator: Adobe Illustrator 22.0.0, SVG Export Plug-In . SVG Version: 6.00 Build 0)  -->
<svg version="1.1" id="Capa_1" xmlns="http://www.w3.org/2000/svg" xmlns:xlink="http://www.w3.org/1999/xlink" x="0px" y="0px"
	 viewBox="0 0 190.4 190.4" style="enable-background:new 0 0 190.4 190.4;" xml:space="preserve">
<style type="text/css">
	.st0{fill:#FFFFFF;}
</style>
<g>
	<path class="st0" d="M139.5,5c0.9,0,1.7,0.5,2.2,1.2c0.4,0.8,0.5,1.7,0,2.5l-31.2,54.9l-4.3,7.5h8.6h49.8c1,0,1.9,0.6,2.3,1.4
		c0.4,0.9,0.3,1.9-0.3,2.7L75.1,184.5c-0.5,0.6-1.2,0.9-1.9,0.9c-0.4,0-0.8-0.1-1.1-0.3c-1-0.5-1.6-1.7-1.3-2.8l13.6-56.9l1.5-6.2
		h-6.3H25.8c-0.9,0-1.7-0.5-2.2-1.2c-0.4-0.8-0.5-1.7,0-2.5L85.9,6.3C86.3,5.5,87.1,5,88,5H139.5 M30.1,114.3h8.6H89
		c0.8,0,1.5,0.3,2,1c0.5,0.6,0.6,1.4,0.5,2.1l-8.4,35.1l-4.9,20.7l13.6-16.3l60.6-72.5l6.9-8.2h-10.7h-46.7c-0.9,0-1.7-0.5-2.2-1.2
		c-0.4-0.8-0.5-1.7,0-2.5l31.2-54.9l4.3-7.5h-8.6H92.4h-2.9L88,12.5l-53.7,94.3L30.1,114.3 M139.5,0H88c-2.7,0-5.2,1.4-6.5,3.8
		L19.3,113.1c-1.3,2.3-1.3,5.2,0,7.5c1.3,2.3,3.8,3.7,6.5,3.7h53.7l-13.6,56.9c-0.8,3.4,0.8,6.9,3.9,8.4c1.1,0.5,2.2,0.8,3.4,0.8
		c2.2,0,4.3-0.9,5.8-2.7l91.3-109.3c1.9-2.2,2.3-5.3,1-8s-3.9-4.3-6.8-4.3h-49.8L146,11.2c1.3-2.3,1.3-5.2,0-7.5
		C144.6,1.4,142.1,0,139.5,0L139.5,0z M126.6,15L95.3,69.9c-1.3,2.3-1.3,5.2,0,7.5c1.3,2.3,3.8,3.7,6.5,3.7h46.7l-60.6,72.5
		l8.4-35.1c0.5-2.2,0-4.6-1.4-6.4c-1.4-1.8-3.6-2.9-5.9-2.9H38.7L92.4,15H126.6L126.6,15z"/>
</g>
</svg>
