<?xml version="1.0" encoding="utf-8"?>
<!-- Generator: Adobe Illustrator 22.0.0, SVG Export Plug-In . SVG Version: 6.00 Build 0)  -->
<svg version="1.1" id="Capa_1" xmlns="http://www.w3.org/2000/svg" xmlns:xlink="http://www.w3.org/1999/xlink" x="0px" y="0px"
	 viewBox="0 0 582.7 582.7" style="enable-background:new 0 0 582.7 582.7;" xml:space="preserve">
<style type="text/css">
	.st0{fill:#FFFFFF;}
</style>
<g>
	<g id="Layer_1_21_">
		<g>
			<path class="st0" d="M364,15c52.9,0,95.9,43,95.9,95.9v229.5c0,8.3-3,16.4-8.4,22.9c-5.4,6.5-12.9,10.8-21,12l-21.1,3.3
				l10.3,18.7L505,552.6c1.4,2.8,1.7,5.9,0.9,8.6c-0.6,2.2-1.9,3.9-3.8,5.1c-2.1,0.7-4.3,1.4-5.5,1.4c-4.1,0-6.5-1.5-8.7-5.2
				l-0.1-0.1l-0.1-0.1l-7.6-12.8l-4.4-7.3h-8.5H115.4h-8.5l-4.4,7.3l-7.6,12.8l-0.3,0.5l-0.3,0.5c-1.1,2.1-4.5,4.5-8.3,4.5
				c-1.1,0-2.7,0-3.3-0.1l-0.7-0.4l-0.8-0.4c-2.3-1.2-3.8-3-4.5-5.5c-0.8-2.7-0.4-5.8,1-8.6l84-155.3l10.1-18.6l-20.9-3.3
				c-17.3-2.7-29.4-17.1-29.4-34.9V112.2c0-53.6,43.6-97.2,97.2-97.2H364 M137.4,187.6c0.1,21.5,17.7,39,39.2,39h229.5
				c22.7,0,40.5-17.2,40.5-39.2v-61.2c0-23-9.2-44.7-25.8-61.2c-16.5-16.3-38-25.2-60.6-25.2h-139c-22.6,0-43.9,9-60.1,25.3
				c-16.2,16.4-25,38-25,61.1v0.2l0,0.2L137.4,187.6 M188.1,359.3c28.7,0,52-23.3,52-52c0-28.7-23.3-52-52-52s-52,23.3-52,52
				C136.1,335.9,159.4,359.3,188.1,359.3 M394.6,360.5c13.8,0,26.9-5.6,36.9-15.8c9.6-9.8,15.1-23,15.1-36.1c0-28.7-23.3-52-52-52
				c-28.7,0-52,23.3-52,52C342.6,337.2,366,360.5,394.6,360.5 M158.9,446h25.3h214.2h25.3l-12.2-22.2l-21.7-39.5l-4.3-7.8h-8.9
				H205.9H197l-4.3,7.8l-21.7,39.5L158.9,446 M110.1,533.9h25.7h311.1h25.7L460,511.6l-28-49.7l-4.3-7.6h-8.8h-255h-8.8l-4.3,7.6
				l-28,49.7L110.1,533.9 M364,0H218.7c-61.2,0-112.2,49.7-112.2,112.2v228.2c0,25.5,17.8,45.9,42.1,49.7L64.4,545.7
				c-6.4,12.8-2.6,28,10.2,34.4c3.8,2.5,7.7,2.5,11.5,2.5c8.9,0,17.9-5.1,21.7-12.8l7.7-12.8h351.9l7.6,12.8
				c5.1,8.9,12.8,12.8,21.7,12.8c3.8,0,7.6-1.3,11.5-2.5c12.8-6.4,16.6-21.7,10.2-34.4l-85.4-155.6c24.2-3.8,42.1-25.5,42.1-49.7
				V110.9C474.9,49.7,425.2,0,364,0L364,0z M176.6,211.7c-14,0-24.2-11.5-24.2-24.2l-1.3-61.2c0-39.5,31.9-71.4,70.1-71.4h139
				c38.2,0,71.4,31.9,71.4,71.4v61.2c0,14-11.5,24.2-25.5,24.2H176.6L176.6,211.7z M188.1,344.3c-20.4,0-37-16.6-37-37
				c0-20.4,16.6-37,37-37c20.4,0,37,16.6,37,37C225,327.7,208.5,344.3,188.1,344.3L188.1,344.3z M394.6,345.5c-20.4,0-37-16.6-37-37
				c0-20.4,16.6-37,37-37c20.4,0,37,16.6,37,37C431.6,327.7,415,345.5,394.6,345.5L394.6,345.5z M184.2,431l21.7-39.5h170.8
				l21.7,39.5H184.2L184.2,431z M135.8,518.9l28.1-49.7h255l28,49.7H135.8L135.8,518.9z"/>
		</g>
	</g>
</g>
</svg>
