<?xml version="1.0" encoding="utf-8"?>
<!-- Generator: Adobe Illustrator 22.0.0, SVG Export Plug-In . SVG Version: 6.00 Build 0)  -->
<svg version="1.1" id="Capa_1" xmlns="http://www.w3.org/2000/svg" xmlns:xlink="http://www.w3.org/1999/xlink" x="0px" y="0px"
	 viewBox="0 0 219.8 219.8" style="enable-background:new 0 0 219.8 219.8;" xml:space="preserve">
<style type="text/css">
	.st0{fill:#FFFFFF;}
</style>
<g>
	<path class="st0" d="M109.9,5c1.4,0,2.5,1.1,2.5,2.5v25.8v8.6l7.5-4.2l19.6-11.1c0.4-0.2,0.8-0.3,1.2-0.3c0.7,0,1.7,0.3,2.2,1.3
		c0.7,1.2,0.3,2.7-0.9,3.4l-26.9,15.2l-2.5,1.4v2.9v18.1v2.9l2.5,1.4l24.5,14.1l2.5,1.4l2.5-1.4l15.7-9.1l2.5-1.5l0-2.9l-0.3-30.9
		c0-0.9,0.4-1.5,0.7-1.8c0.3-0.3,0.9-0.7,1.8-0.7l0.1,0l0,0c1.3,0,2.4,1.1,2.5,2.5l0.2,22.5l0.1,8.6l7.4-4.3l22.3-12.9
		c0.4-0.2,0.8-0.3,1.2-0.3c0.7,0,1.6,0.3,2.2,1.3c0.5,0.8,0.3,1.5,0.2,1.9c-0.1,0.4-0.4,1.1-1.2,1.5l-22.3,12.9l-7.4,4.3l7.4,4.4
		l19.3,11.4c1.2,0.7,1.6,2.2,0.9,3.4c-0.5,0.8-1.3,1.2-2.2,1.2c-0.4,0-0.9-0.1-1.3-0.3l-26.7-15.7l-2.5-1.5l-2.5,1.5l-15.7,9.1
		l-2.5,1.4v2.9V124v2.9l2.5,1.4l15.7,9.1l2.5,1.5l2.5-1.5l26.6-15.7c0.4-0.2,0.8-0.3,1.3-0.3c0.9,0,1.7,0.5,2.2,1.2
		c0.7,1.2,0.3,2.7-0.9,3.4l-19.3,11.4l-7.4,4.4l7.4,4.3l22.3,12.9c1.2,0.7,1.6,2.2,0.9,3.4c-0.5,0.9-1.5,1.3-2.2,1.3
		c-0.4,0-0.9-0.1-1.2-0.3L175,150.4l-7.4-4.3l-0.1,8.6l-0.2,22.5c0,1.4-1.1,2.5-2.5,2.5l-0.1,0c-1.4,0-2.5-1.1-2.5-2.5l0.3-30.9
		l0-2.9l-2.5-1.5l-15.7-9.1l-2.5-1.4l-2.5,1.4l-24.5,14.1l-2.5,1.4v2.9v18.1v2.9l2.5,1.4l26.9,15.2c1.2,0.7,1.6,2.2,0.9,3.4
		c-0.5,0.9-1.5,1.3-2.2,1.3c-0.4,0-0.8-0.1-1.2-0.3l-19.6-11.1l-7.5-4.2v8.6v25.8c0,1.4-1.1,2.5-2.5,2.5s-2.5-1.1-2.5-2.5v-25.8
		v-8.6l-7.5,4.2l-19.6,11.1c-0.4,0.2-0.8,0.3-1.2,0.3c-0.7,0-1.7-0.3-2.2-1.3c-0.7-1.2-0.3-2.7,0.9-3.4l26.9-15.2l2.5-1.4v-2.9
		v-18.1v-2.9l-2.5-1.4l-24.5-14.1l-2.5-1.4l-2.5,1.4l-15.7,9.1l-2.5,1.5l0,2.9l0.3,30.9c0,1.4-1.1,2.5-2.5,2.5l-0.1,0
		c-1.3,0-2.5-1.1-2.5-2.5l-0.2-22.5l-0.1-8.6l-7.4,4.3l-22.3,12.9c-0.4,0.2-0.8,0.3-1.2,0.3c-0.9,0-1.7-0.5-2.2-1.3
		c-0.7-1.2-0.3-2.7,0.9-3.4L42.3,146l7.4-4.3l-7.4-4.4L23,126c-1.2-0.7-1.6-2.2-0.9-3.4c0.5-0.8,1.3-1.2,2.2-1.2
		c0.4,0,0.9,0.1,1.3,0.3l26.7,15.7l2.5,1.5l2.5-1.5l15.7-9.1l2.5-1.4V124V95.7v-2.9l-2.5-1.4l-15.7-9.1l-2.5-1.5l-2.5,1.5L25.5,98.1
		c-0.4,0.2-0.8,0.3-1.3,0.3c-0.9,0-1.7-0.5-2.2-1.2c-0.5-0.8-0.4-1.5-0.3-1.9c0.1-0.4,0.4-1.1,1.2-1.5l19.4-11.4l7.4-4.4l-7.4-4.3
		L20,60.9c-1.2-0.7-1.6-2.2-0.9-3.4c0.5-0.8,1.3-1.2,2.2-1.2c0.4,0,0.9,0.1,1.2,0.3l22.3,12.9l7.4,4.3l0.1-8.6l0.2-22.5
		c0-1.4,1.1-2.5,2.5-2.5l0,0c0.9,0,1.5,0.5,1.8,0.7c0.3,0.3,0.7,0.9,0.7,1.8l-0.3,30.9l0,2.9l2.5,1.5l15.7,9.1l2.5,1.4l2.5-1.4
		l24.5-14.1l2.5-1.4v-2.9V50.5v-2.9l-2.5-1.4L77.9,30.9c-0.8-0.4-1.1-1.1-1.2-1.5c-0.1-0.4-0.2-1.1,0.2-1.9c0.5-0.9,1.5-1.3,2.2-1.3
		c0.4,0,0.8,0.1,1.2,0.3l19.6,11.1l7.5,4.2v-8.6V7.5C107.4,6.1,108.5,5,109.9,5 M109.9,144l2.5-1.4l24.5-14.1l2.5-1.4V124V95.7v-2.9
		l-2.5-1.4l-24.5-14.1l-2.5-1.4l-2.5,1.4L82.9,91.4l-2.5,1.4v2.9V124v2.9l2.5,1.4l24.5,14.1L109.9,144 M109.9,0
		c-4.1,0-7.5,3.4-7.5,7.5v25.8L82.8,22.2c-1.2-0.7-2.4-1-3.7-1c-2.6,0-5.2,1.4-6.5,3.8c-2,3.6-0.8,8.2,2.8,10.2l26.9,15.2v18.1
		L77.9,82.8l-15.7-9.1l0.3-30.9c0-4.1-3.3-7.5-7.4-7.6c0,0,0,0-0.1,0c-4.1,0-7.5,3.3-7.5,7.4l-0.2,22.5L25,52.2
		c-1.2-0.7-2.5-1-3.7-1c-2.6,0-5.1,1.3-6.5,3.8c-2.1,3.6-0.8,8.2,2.7,10.2l22.3,12.9L20.4,89.5c-3.6,2.1-4.8,6.7-2.7,10.3
		c1.4,2.4,3.9,3.7,6.5,3.7c1.3,0,2.6-0.3,3.8-1l26.7-15.7l15.7,9.1V124l-15.7,9.1l-26.6-15.7c-1.2-0.7-2.5-1-3.8-1
		c-2.6,0-5.1,1.3-6.5,3.7c-2.1,3.6-0.9,8.2,2.7,10.3l19.3,11.4l-22.3,12.9c-3.6,2.1-4.8,6.7-2.7,10.2c1.4,2.4,3.9,3.8,6.5,3.8
		c1.3,0,2.6-0.3,3.7-1l22.3-12.9l0.2,22.5c0,4.1,3.4,7.4,7.5,7.4c0,0,0,0,0.1,0c4.1,0,7.5-3.4,7.4-7.6l-0.3-30.9l15.7-9.1l24.5,14.1
		v18.1l-26.9,15.2c-3.6,2-4.9,6.6-2.8,10.2c1.4,2.4,3.9,3.8,6.5,3.8c1.2,0,2.5-0.3,3.7-1l19.6-11.1v25.8c0,4.1,3.4,7.5,7.5,7.5
		s7.5-3.4,7.5-7.5v-25.8l19.6,11.1c1.2,0.7,2.4,1,3.7,1c2.6,0,5.2-1.4,6.5-3.8c2-3.6,0.8-8.2-2.8-10.2l-26.9-15.2v-18.1l24.5-14.1
		l15.7,9.1l-0.3,30.9c0,4.1,3.3,7.5,7.4,7.6c0,0,0,0,0.1,0c4.1,0,7.5-3.3,7.5-7.4l0.2-22.5l22.3,12.9c1.2,0.7,2.5,1,3.7,1
		c2.6,0,5.1-1.3,6.5-3.8c2.1-3.6,0.8-8.2-2.7-10.2L180,141.7l19.3-11.4c3.6-2.1,4.8-6.7,2.7-10.3c-1.4-2.4-3.9-3.7-6.5-3.7
		c-1.3,0-2.6,0.3-3.8,1l-26.6,15.7l-15.7-9.1V95.7l15.7-9.1l26.7,15.7c1.2,0.7,2.5,1,3.8,1c2.6,0,5.1-1.3,6.5-3.7
		c2.1-3.6,0.9-8.2-2.7-10.3L180,78.1l22.3-12.9c3.6-2.1,4.8-6.7,2.7-10.2c-1.4-2.4-3.9-3.8-6.5-3.8c-1.3,0-2.6,0.3-3.7,1l-22.3,12.9
		l-0.2-22.5c0-4.1-3.4-7.4-7.5-7.4c0,0-0.1,0-0.1,0c-4.1,0-7.5,3.4-7.4,7.6l0.3,30.9l-15.7,9.1l-24.5-14.1V50.5l26.9-15.2
		c3.6-2,4.9-6.6,2.8-10.2c-1.4-2.4-3.9-3.8-6.5-3.8c-1.3,0-2.5,0.3-3.7,1l-19.6,11.1V7.5C117.4,3.4,114,0,109.9,0L109.9,0z
		 M109.9,138.2L85.4,124V95.7l24.5-14.1l24.5,14.1V124L109.9,138.2L109.9,138.2z"/>
</g>
</svg>
