<?xml version="1.0" encoding="iso-8859-1"?>
<!-- Generator: Adobe Illustrator 19.0.0, SVG Export Plug-In . SVG Version: 6.00 Build 0)  -->
<svg version="1.1" id="Capa_1" xmlns="http://www.w3.org/2000/svg" xmlns:xlink="http://www.w3.org/1999/xlink" x="0px" y="0px"
	 viewBox="0 0 456 456" style="enable-background:new 0 0 456 456;" xml:space="preserve">
<g>
	<g>
		<path d="M248,260c-17.68,0-32,14.32-32,32s14.32,32,32,32s32-14.32,32-32S265.68,260,248,260z M248,308c-8.816,0-16-7.184-16-16
			c0-8.816,7.184-16,16-16c8.816,0,16,7.184,16,16C264,300.816,256.816,308,248,308z" fill="#fff"/>
	</g>
</g>
<g>
	<g>
		<path d="M348,260c-17.68,0-32,14.32-32,32s14.32,32,32,32s32-14.32,32-32S365.68,260,348,260z M348,308c-8.816,0-16-7.184-16-16
			c0-8.816,7.184-16,16-16c8.816,0,16,7.184,16,16C364,300.816,356.816,308,348,308z" fill="#fff"/>
	</g>
</g>
<g>
	<g>
		<path d="M344,180v-32h-23.328c0-14.704,10.048-26.992,23.584-30.704C344.96,125.488,351.616,132,360,132h32V52h-32
			c-8.832,0-16,7.168-16,16v0.944c-39.984,4.384-71.328,37.92-71.328,79.056H248v32c-19.312,0-37.504,4.96-53.408,13.648
			l-90.96,49.248l-8.336-25.024C90.944,204.816,78.704,196,64.928,196H16c-5.456,0-9.312,5.344-7.584,10.528L37.056,284H8
			c-4.416,0-8,3.584-8,8c0,4.416,3.584,8,8,8h29.04L8.416,377.472C6.688,382.656,10.544,388,16,388h48.928
			c13.776,0,26-8.816,30.352-21.888l8.336-25.024l90.96,49.344v-0.096C210.496,399.04,228.688,404,248,404h96
			c61.6,0,112-50.4,112-112S405.6,180,344,180z M360,68h16v48h-16V68z M344,84.96v16.032c-22.32,4.096-39.328,23.52-39.328,47.008
			h-16C288.672,115.68,312.848,89.232,344,84.96z M264,164h64v16h-64V164z M344,388h-96c-15.936,0-31.744-4.048-45.728-11.696
			l-23.68-12.848v0.096l-67.328-36.512l-16.768-9.104l-6.032,18.112l-8.336,25.024C77.936,367.6,71.84,372,64.928,372h-37.44
			l26.608-72H104c4.416,0,8-3.584,8-8c0-4.416-3.584-8-8-8H54.112l-26.624-72h37.44c6.896,0,12.992,4.4,15.184,10.944l8.336,25.024
			l6.032,18.096l16.768-9.104l67.328-36.528v0.208l23.68-12.944C216.256,200.048,232.064,196,248,196h96c52.928,0,96,43.072,96,96
			C440,344.928,396.928,388,344,388z" fill="#fff"/>
	</g>
</g>
</svg>
