<?xml version="1.0" encoding="utf-8"?>
<!-- Generator: Adobe Illustrator 22.0.0, SVG Export Plug-In . SVG Version: 6.00 Build 0)  -->
<svg version="1.1" id="Capa_1" xmlns="http://www.w3.org/2000/svg" xmlns:xlink="http://www.w3.org/1999/xlink" x="0px" y="0px"
	 viewBox="0 0 512 512" style="enable-background:new 0 0 512 512;" xml:space="preserve">
<style type="text/css">
	.st0{fill:#FFFFFF;}
</style>
<g>
	<g>
		<g>
			<path class="st0" d="M87.3,49.9c11.7,0,23.1,6.9,30.4,18.4c7.8,12.3,11,28.8,8.1,41.2c-1.5,6.6-4.8,11.6-9.5,14.4
				c-3,1.8-6.5,2.7-10.5,2.7c-5.2,0-10.9-1.6-17-4.7c-9.5-4.9-18.5-12.9-24-21.6c-5.8-9.2-7.9-19.3-5.8-28.3
				c1.8-7.6,6.4-13.9,13.1-18C76.9,51.3,82,49.9,87.3,49.9 M106,121.7L106,121.7c3,0,5.6-0.7,7.8-2c3.5-2.1,6-6,7.2-11.3
				c2.6-11-0.5-26.4-7.5-37.4c-6.4-10.1-16.2-16.1-26.1-16.1c-4.5,0-8.7,1.2-12.6,3.5c-5.6,3.4-9.3,8.5-10.8,14.8
				c-1.8,7.7,0,16.4,5.1,24.5C77.5,110.9,94.1,121.7,106,121.7 M87.3,44.9c-6.1,0-12.1,1.6-17.7,5c-7.8,4.7-13.2,12.2-15.3,21.1
				c-2.4,10.4-0.2,21.8,6.4,32.1c6,9.4,15.6,18.1,25.9,23.4c6.8,3.5,13.4,5.2,19.3,5.2c4.8,0,9.2-1.2,13.1-3.5
				c5.8-3.5,9.9-9.6,11.8-17.5c3.2-13.6-0.3-31.7-8.8-45.1C113.5,52.3,100.4,44.9,87.3,44.9L87.3,44.9z M106,116.7
				c-9.8,0-24.9-9.5-32.6-21.6c-4.4-6.9-6-14.3-4.5-20.7c1.2-5,4.1-9,8.5-11.7c3.1-1.9,6.5-2.8,10-2.8c8,0,16.3,4.9,21.9,13.8
				c6.2,9.8,9.1,24,6.8,33.6c-0.6,2.7-2,6.4-4.9,8.1C109.8,116.3,108,116.7,106,116.7L106,116.7z"/>
		</g>
	</g>
</g>
<g>
	<g>
		<g>
			<path class="st0" d="M29.8,113.7c7.7,0,15.6,3.2,22.3,9.1c6.7,5.9,12.5,14.6,15.4,23.3c3.3,9.9,2.6,18.3-2.1,23.6
				c-3.4,3.9-8.8,6-15.5,6c-2.4,0-5-0.3-7.6-0.8c-9-1.7-18.4-6.3-25.1-12.2c-6.6-5.8-10.8-13.1-11.9-20.6c-1.1-7.4,1-14.5,5.8-20
				C15.8,116.6,22.5,113.7,29.8,113.7 M49.8,170.6c5.3,0,9.4-1.5,11.8-4.2c3.8-4.4,4-11.7,0.4-20.7c-2.9-7.4-7.9-14.5-13.2-19.2
				c-5.8-5.1-12.5-7.8-18.9-7.8c-5.9,0-11.3,2.4-15,6.7c-3.8,4.4-5.5,10.1-4.6,16c0.9,6.3,4.5,12.5,10.2,17.5
				c6,5.3,14.7,9.5,22.8,11.1C45.5,170.3,47.8,170.6,49.8,170.6 M29.8,108.7c-8.5,0-16.6,3.4-22.5,10.1c-5.8,6.6-8.3,15.1-7,24
				c1.2,8.7,6,17.1,13.6,23.6c7.4,6.5,17.6,11.4,27.5,13.3c3,0.6,5.9,0.9,8.6,0.9c8.2,0,14.8-2.6,19.3-7.7c5.9-6.7,7-16.8,3.1-28.5
				c-3.2-9.5-9.5-19-16.8-25.5C47.6,112.1,38.4,108.7,29.8,108.7L29.8,108.7z M49.8,165.6c-1.7,0-3.6-0.2-5.6-0.6
				c-7.2-1.4-15.1-5.2-20.4-9.9c-4.8-4.2-7.9-9.3-8.6-14.5c-0.6-4.5,0.6-8.8,3.4-12c2.9-3.3,6.9-5,11.3-5c5.1,0,10.7,2.2,15.6,6.6
				c9.7,8.5,17.8,26.6,12.4,32.8C56.4,164.7,53.5,165.6,49.8,165.6L49.8,165.6z"/>
		</g>
	</g>
</g>
<g>
	<g>
		<g>
			<path class="st0" d="M176.9,31.5c1.3,0,2.7,0.1,4.1,0.3c7.7,1.1,14.5,5.1,19.1,11.4c5.5,7.5,7.6,17.5,5.9,28.3
				c-1.6,10.1-6.7,21.1-13.5,29.3c-6.8,8.2-14.7,12.8-22,12.8c-0.8,0-1.7-0.1-2.5-0.2c-13.6-1.9-21.6-19.2-23.4-34.5
				c-0.2-1.4,0.8-2.6,2.2-2.8c0.1,0,0.2,0,0.3,0c1.3,0,2.3,0.9,2.5,2.2c1.9,16.4,9.8,28.8,19.2,30.1c0.6,0.1,1.2,0.1,1.8,0.1
				c13.6,0,27.8-20.7,30.6-37.9c1.5-9.4-0.2-18.1-5-24.5c-3.9-5.2-9.3-8.5-15.7-9.4c-1.1-0.2-2.3-0.2-3.4-0.2
				c-9.6,0-18.4,5.7-23.3,15.2c-0.5,1-1.5,1.3-2.2,1.3c-0.4,0-0.8-0.1-1.2-0.3c-1.2-0.6-1.7-2.2-1.1-3.4
				C154.8,38.4,165.5,31.5,176.9,31.5 M176.9,26.5c-13.2,0-25.5,7.7-32.3,20.6c-1.9,3.7-0.5,8.2,3.2,10.1c1.1,0.6,2.3,0.9,3.5,0.9
				c2.7,0,5.3-1.5,6.7-4c4.1-7.9,11.2-12.5,18.9-12.5c0.9,0,1.8,0.1,2.7,0.2c5.1,0.7,9.4,3.3,12.4,7.4c3.9,5.3,5.3,12.7,4,20.8
				c-2.7,16.5-16,33.7-25.7,33.7c-0.4,0-0.7,0-1.1-0.1c-6.9-1-13.3-12-14.9-25.8c-0.4-3.8-3.7-6.6-7.4-6.6c-0.3,0-0.6,0-0.9,0.1
				c-4.1,0.5-7.1,4.2-6.6,8.3c2.1,17.7,11.4,36.6,27.7,38.9c1.1,0.1,2.1,0.2,3.2,0.2c8.9,0,17.9-5.1,25.8-14.6
				c7.4-8.9,12.8-20.7,14.6-31.7c2-12.1-0.5-23.5-6.8-32.1c-5.4-7.3-13.4-12.1-22.4-13.3C180,26.6,178.5,26.5,176.9,26.5L176.9,26.5
				z"/>
		</g>
	</g>
</g>
<g>
	<g>
		<g>
			<path class="st0" d="M253.4,67.7c3.6,0,7.2,0.8,10.5,2.4c6.6,3.1,11.3,8.9,13.2,16.1c2,7.3,1,15.7-2.8,23.6
				c-3.2,6.7-8.6,13.5-14.9,18.6c-6.7,5.4-13.6,8.4-19.6,8.4c-2.5,0-4.9-0.5-7.1-1.6c-6.4-3.1-10.4-10.5-11.2-20.9
				c-0.7-9.1,1.1-19.4,5-27.5c3.8-7.9,9.7-14,16.6-17C246.4,68.4,249.9,67.7,253.4,67.7 M239.9,131.8c10.5,0,24.4-12.8,29.9-24.2
				c3.3-6.8,4.2-14,2.5-20.1c-1.6-5.8-5.3-10.4-10.6-12.9c-2.6-1.3-5.5-1.9-8.4-1.9c-2.8,0-5.6,0.6-8.3,1.8
				c-5.8,2.6-10.8,7.7-14.1,14.6c-3.1,6.4-4.8,14.9-4.6,22.8c0.2,9.7,3.2,16.3,8.5,18.9C236.4,131.5,238.1,131.8,239.9,131.8
				 M253.4,62.7c-4.1,0-8.3,0.9-12.3,2.6c-8,3.5-14.8,10.4-19.1,19.4c-4.2,8.8-6.3,20.1-5.4,30c1,12.3,6,21.1,14.1,25
				c3,1.4,6.1,2.1,9.2,2.1c15.5,0,32.1-15.5,39-29.9c4.3-9,5.4-18.6,3.1-27.1c-2.3-8.7-8-15.5-15.9-19.3
				C262,63.6,257.7,62.7,253.4,62.7L253.4,62.7z M239.9,126.8c-1,0-2-0.2-2.9-0.6c-7.4-3.5-7.1-23.4-1.6-35
				c2.8-5.8,6.9-10.1,11.6-12.2c2.1-0.9,4.2-1.4,6.3-1.4c2.1,0,4.3,0.5,6.2,1.4c3.9,1.9,6.7,5.3,7.9,9.7c1.3,5,0.6,10.9-2.2,16.7
				C260.4,115.8,247.9,126.8,239.9,126.8L239.9,126.8z"/>
		</g>
	</g>
</g>
<g>
	<g>
		<g>
			<path class="st0" d="M165.8,137.7L165.8,137.7c9.2,0,18.3,1.3,27.1,3.9c0.9,0.3,1.3,0.9,1.5,1.2c0.2,0.3,0.5,1,0.2,1.9
				c-0.3,1.1-1.3,1.8-2.4,1.8c-0.2,0-0.5,0-0.7-0.1c-8.3-2.4-16.9-3.7-25.6-3.7c-6.2,0-12.3,0.6-18.3,1.9
				c-21.7,4.5-40.8,16.3-53.8,33.5c-12.3,16.2-17.5,34.9-14.1,51.1c1.2,5.6,3.6,13.8,11.7,19.9c7.6,5.7,18.5,8.5,33.6,8.5
				c12,0,27.1-1.8,44.7-5.5c26.9-5.5,45-11.8,57.1-19.9c14.3-9.5,19.7-21.5,16.6-36.7c-2.8-13.5-11.6-26.3-24.8-36
				c-0.7-0.5-0.9-1.3-1-1.6c-0.1-0.4-0.1-1.1,0.5-1.9c0.5-0.6,1.2-1,2-1c0.4,0,0.9,0.1,1.5,0.5c14.3,10.5,23.8,24.3,26.8,39
				c3.6,17.4-2.6,31.1-18.7,41.8c-12.6,8.4-31.3,14.9-58.9,20.6c-18.5,3.8-33.4,5.6-45.7,5.6c-6.1,0-11.5-0.4-16.5-1.4
				c-19.1-3.5-30.1-13.7-33.7-31.1c-3.7-17.8,1.9-37.9,15.3-55.3c13.9-18.1,34-30.6,56.6-35.2C152.8,138.3,159.3,137.7,165.8,137.7
				 M165.8,132.7c-6.8,0-13.6,0.7-20.3,2.1c-23.8,4.9-44.9,18-59.5,37.1c-14.2,18.5-20.1,40.2-16.2,59.4c4,19.3,16.7,31.1,37.7,35
				c5.2,1,11,1.4,17.4,1.4c12.7,0,28-1.9,46.7-5.7c28.2-5.8,47.5-12.6,60.6-21.3c17.8-11.9,24.8-27.7,20.9-47
				c-3.3-15.9-13.5-30.8-28.7-42c-1.3-1-2.9-1.5-4.4-1.5c-2.3,0-4.6,1.1-6,3.1c-2.5,3.3-1.7,8,1.6,10.5c12.3,9,20.4,20.7,22.9,33
				c2.7,13.1-1.9,23.1-14.5,31.5c-11.5,7.7-29.1,13.7-55.3,19.1c-18.3,3.8-32.5,5.4-43.7,5.4c-30.3,0-37.8-11.8-40.4-24.4
				c-6.1-29.7,20-69.7,64-78.7c5.7-1.2,11.5-1.8,17.3-1.8c8.2,0,16.4,1.2,24.2,3.5c0.7,0.2,1.4,0.3,2.1,0.3c3.2,0,6.2-2.1,7.2-5.4
				c1.2-4-1.1-8.1-5.1-9.3C185,134,175.4,132.7,165.8,132.7L165.8,132.7z"/>
		</g>
	</g>
</g>
<g>
	<g>
		<g>
			<path class="st0" d="M351.9,241.6c0.5,0,0.9,0,1.4,0c17.6,0.8,30.4,16.8,29.9,37.1c-0.4,14.5-6.9,30.1-16.2,38.8
				c-4.7,4.4-9.9,6.7-15.1,6.7c-0.3,0-0.5,0-0.8,0c-8.2-0.4-15.9-6.4-21.7-16.9c-5.2-9.3-8.1-21-7.9-31.3c0.3-10.9,4.2-20.4,11-26.7
				C337.8,244.3,344.7,241.6,351.9,241.6 M351.8,319.2c3.9,0,7.9-1.9,11.7-5.4c8.3-7.7,14.3-22.2,14.6-35.2
				c0.5-17.8-10.1-31.3-25.1-32c-0.4,0-0.8,0-1.1,0c-6,0-11.6,2.2-16,6.3c-5.8,5.4-9.2,13.6-9.4,23.2c-0.2,9.1,2.2,19.2,6.8,27.8
				c5,9.4,11.6,15,18.1,15.3C351.5,319.2,351.7,319.2,351.8,319.2 M351.9,236.6c-8.5,0-16.6,3.2-22.9,9c-7.8,7.3-12.3,18-12.6,30.3
				c-0.3,11.1,2.9,23.8,8.5,33.8c6.7,12.1,15.9,19,25.9,19.5c0.4,0,0.7,0,1,0c6.4,0,12.8-2.8,18.5-8c10.3-9.5,17.4-26.5,17.8-42.3
				c0.6-23.1-14.3-41.3-34.6-42.3C353,236.6,352.5,236.6,351.9,236.6L351.9,236.6z M351.8,314.2c-0.1,0-0.2,0-0.3,0
				c-9.8-0.5-20.5-20.7-20.1-38c0.2-8.2,3-15.2,7.8-19.7c3.5-3.3,7.9-5,12.6-5c0.3,0,0.6,0,0.9,0c12.2,0.6,20.7,11.9,20.3,26.9
				c-0.3,11.6-5.8,25-13,31.7C358.2,312,355.1,314.2,351.8,314.2L351.8,314.2z"/>
		</g>
	</g>
</g>
<g>
	<g>
		<g>
			<path class="st0" d="M271,263.1c5,0,9.8,1.6,14.1,4.5c6.2,4.3,10.9,11.3,13.2,19.8c2.3,8.7,2.2,19.7-0.4,28.6
				c-3.7,13-10.8,16.7-14.7,17.7c-1.3,0.3-2.6,0.5-4,0.5c-5.8,0-12.1-3.1-18.1-9.1c-6.5-6.5-11.8-15.5-14.1-24.1
				c-4.6-17.3,2.9-33.2,17.6-37.1C266.8,263.3,268.9,263.1,271,263.1 M279.3,329.2c0.9,0,1.8-0.1,2.6-0.3c5.6-1.5,9.8-7.5,11.8-17
				c1.6-7.7,1.5-16.5-0.3-23.3c-2-7.3-5.9-13.4-11.2-16.9c-3.5-2.4-7.4-3.6-11.4-3.6c-1.7,0-3.4,0.2-5,0.7
				c-6,1.6-10.7,5.8-13.2,11.8c-2.3,5.5-2.6,12.4-0.8,19.2c2.1,7.7,6.9,16.1,12.8,21.9C269.7,326.5,274.9,329.2,279.3,329.2
				 M271,258.1c-2.5,0-5.1,0.3-7.6,1c-17.4,4.6-26.4,23.2-21.1,43.2c2.5,9.5,8.3,19.3,15.4,26.4c7,6.9,14.5,10.6,21.6,10.6
				c1.8,0,3.6-0.2,5.3-0.7c18.9-5,23.6-34,18.6-52.5c-2.6-9.6-8-17.7-15.2-22.6C282.8,259.9,277,258.1,271,258.1L271,258.1z
				 M279.3,324.2c-3.1,0-7.2-2.3-11.1-6.2c-5.2-5.2-9.6-12.7-11.4-19.6c-3.2-11.9,1.2-22.4,10.5-24.9c1.2-0.3,2.5-0.5,3.7-0.5
				c3,0,5.9,0.9,8.6,2.7c4.3,2.9,7.5,7.9,9.2,14.1c3.3,12.5-0.1,32-8,34.1C280.3,324.2,279.8,324.2,279.3,324.2L279.3,324.2z"/>
		</g>
	</g>
</g>
<g>
	<g>
		<g>
			<path class="st0" d="M436.2,276.2c7.4,0,14.4,2.6,19.8,7.5c5.8,5.2,9.2,12.3,9.5,20.1c0.4,9.3-3.4,18.8-10.9,26.8
				c-7,7.5-17.3,13.8-27.5,16.8c-4.3,1.3-8.5,1.9-12.3,1.9c-6.2,0-11.3-1.7-15.1-5.1c-10.2-9.1-7.3-28-0.2-41.7
				c0.5-1,1.5-1.4,2.2-1.4c0.4,0,0.8,0.1,1.1,0.3c0.8,0.4,1.1,1.1,1.2,1.5c0.1,0.4,0.3,1.1-0.2,1.9c-7.6,14.7-7.9,29.4-0.9,35.7
				c2.8,2.5,6.7,3.8,11.7,3.8c11.7,0,27-7.2,36.2-17.1c6.5-7,9.9-15.2,9.5-23.1c-0.3-6.5-3-12.2-7.9-16.6
				c-4.5-4.1-10.2-6.2-16.4-6.2c-4.7,0-9.6,1.3-14.1,3.8c-0.4,0.2-0.8,0.3-1.2,0.3c-0.7,0-1.7-0.3-2.2-1.3c-0.7-1.2-0.2-2.7,1-3.4
				C424.9,277.7,430.6,276.2,436.2,276.2 M436.2,271.2c-6.3,0-12.8,1.6-18.9,4.9c-3.6,2-5,6.5-3,10.2c1.4,2.5,3.9,3.9,6.6,3.9
				c1.2,0,2.4-0.3,3.6-0.9c3.9-2.1,7.9-3.1,11.7-3.1c4.9,0,9.4,1.7,13.1,4.9c3.8,3.4,6,7.9,6.2,13.1c0.3,6.6-2.6,13.5-8.2,19.5
				c-8.7,9.3-22.8,15.5-32.6,15.5c-3.5,0-6.4-0.8-8.3-2.5c-5.2-4.6-4.3-17.4,2-29.7c1.9-3.7,0.4-8.2-3.2-10.1
				c-1.1-0.6-2.3-0.8-3.4-0.8c-2.7,0-5.3,1.5-6.7,4.1c-8.2,15.9-10.9,36.8,1.3,47.7c4.7,4.2,11,6.4,18.4,6.4c4.2,0,8.8-0.7,13.7-2.1
				c11.1-3.3,22.2-10.1,29.8-18.2c8.4-9,12.7-19.8,12.2-30.4c-0.4-9.1-4.4-17.5-11.2-23.6C452.9,274.1,444.7,271.2,436.2,271.2
				L436.2,271.2z"/>
		</g>
	</g>
</g>
<g>
	<g>
		<g>
			<path class="st0" d="M481.4,349.5c9.5,0,17.6,4.4,22.2,12.2c3.7,6.3,4.4,13.6,2,20.7c-2.4,7.2-7.9,13.6-15.5,18
				c-7.7,4.5-17.7,7.3-26.9,7.4c-0.1,0-0.2,0-0.3,0c-10.3,0-17.9-3.3-21.5-9.4c-3.6-6.1-2.8-14.5,2.3-23.6
				c4.5-8,11.7-15.5,19.4-20.1C469,351.3,475.3,349.5,481.4,349.5 M462.8,402.8l0.3,0c8.2,0,17.6-2.6,24.4-6.7
				c6.5-3.9,11.3-9.3,13.3-15.3c1.9-5.7,1.4-11.6-1.6-16.6c-3.7-6.2-10.2-9.7-17.9-9.7c-5.2,0-10.6,1.6-15.7,4.6
				c-6.9,4.1-13.6,11-17.6,18.2c-4.1,7.4-5,14.2-2.4,18.6C448.3,400.2,454.5,402.8,462.8,402.8 M481.4,344.5c-6.8,0-14,1.9-20.8,6
				c-8.4,5-16.4,13.2-21.3,21.9c-6,10.7-6.8,20.9-2.2,28.6c4.5,7.6,13.7,11.8,25.8,11.8c0.1,0,0.2,0,0.3,0c10-0.1,21-3.1,29.5-8
				c8.6-5.1,14.9-12.4,17.7-20.7c2.9-8.5,2-17.3-2.4-24.9C502.2,349.5,492.3,344.5,481.4,344.5L481.4,344.5z M462.8,397.8
				c-6.3,0-11.2-1.7-12.8-4.5c-1.6-2.8-0.7-8,2.4-13.6c3.6-6.4,9.6-12.7,15.8-16.3c4.4-2.6,9-3.9,13.1-3.9c5.8,0,10.8,2.5,13.6,7.3
				c2.2,3.7,2.6,8.1,1.2,12.4c-1.7,4.9-5.6,9.4-11.1,12.6c-6.2,3.6-14.6,5.9-21.9,6C463,397.8,462.9,397.8,462.8,397.8L462.8,397.8z
				"/>
		</g>
	</g>
</g>
<g>
	<g>
		<g>
			<path class="st0" d="M330.8,346.8L330.8,346.8c12.5,0,24.8,2.4,36.5,7.2c14.5,5.9,27.4,15.4,37.5,27.4c0.9,1.1,0.7,2.6-0.3,3.5
				c-0.6,0.5-1.2,0.6-1.6,0.6c-0.7,0-1.4-0.3-1.9-0.9c-9.5-11.4-21.8-20.4-35.5-26c-11.1-4.5-22.7-6.8-34.6-6.8
				c-9.7,0-19.3,1.6-28.5,4.7c-19.4,6.5-34.1,19.1-40.5,34.6c-5.9,14.3-2.7,27.1,9.6,39.1c10.4,10.1,27,19.7,52.4,30.1
				c25.1,10.3,44.5,15.3,59,15.3c10.7,0,25.9-2.2,33.7-21.2c5.2-12.7,5-28.3-0.6-43.7c-0.3-0.8-0.1-1.6,0.1-1.9
				c0.2-0.3,0.6-1,1.4-1.3c0.3-0.1,0.6-0.2,0.8-0.2c0.9,0,1.9,0.5,2.4,1.7c6,16.6,6.2,33.4,0.5,47.3c-6.7,16.4-19.3,24.3-38.6,24.3
				l-0.3,0c-15.2-0.1-34.3-5-60.4-15.7c-26-10.6-43.2-20.5-54-31.1c-13.9-13.6-17.4-28.1-10.7-44.6c6.9-16.8,22.7-30.4,43.5-37.4
				C310.4,348.4,320.5,346.8,330.8,346.8 M330.8,341.8c-10.7,0-21.4,1.7-31.7,5.2c-22.1,7.5-39.1,22.1-46.5,40.3
				c-7.5,18.3-3.5,35.1,11.8,50c11.3,11,29,21.3,55.6,32.2c26.6,10.9,46.4,16,62.2,16.1c0.1,0,0.2,0,0.3,0
				c21.2,0,35.8-9.2,43.2-27.4c6.1-15,6-33.1-0.4-50.9c-1.1-3.1-4-5-7.1-5c-0.8,0-1.7,0.1-2.5,0.4c-3.9,1.4-5.9,5.7-4.5,9.6
				c5.2,14.3,5.4,28.6,0.7,40.1c-3.9,9.6-10.9,18.1-29,18.1c-12.7,0-30.8-4.1-57.1-14.9c-24.8-10.1-41-19.4-50.8-29
				c-10.8-10.5-13.5-21.2-8.4-33.6c5.8-14.1,19.4-25.7,37.4-31.8c8.7-2.9,17.8-4.4,26.9-4.4c11.1,0,22.2,2.2,32.7,6.5
				c13,5.3,24.6,13.8,33.6,24.6c1.5,1.8,3.6,2.7,5.8,2.7c1.7,0,3.4-0.6,4.8-1.7c3.2-2.7,3.6-7.4,1-10.6
				c-10.5-12.6-24.2-22.6-39.4-28.8C356.9,344.3,343.8,341.8,330.8,341.8L330.8,341.8z"/>
		</g>
	</g>
</g>
</svg>
