<?xml version="1.0" encoding="utf-8"?>
<!-- Generator: Adobe Illustrator 22.0.0, SVG Export Plug-In . SVG Version: 6.00 Build 0)  -->
<svg version="1.1" id="Capa_1" xmlns="http://www.w3.org/2000/svg" xmlns:xlink="http://www.w3.org/1999/xlink" x="0px" y="0px"
	 viewBox="0 0 236.7 236.7" style="enable-background:new 0 0 236.7 236.7;" xml:space="preserve">
<style type="text/css">
	.st0{fill:#FFFFFF;}
</style>
<g>
	<g>
		<path class="st0" d="M118.3,60.4c62.5,0,113.3,50.8,113.3,113.3c0,1.4-1.1,2.5-2.5,2.5c-1.4,0-2.5-1.1-2.5-2.5
			c0-59.7-48.6-108.3-108.3-108.3C58.6,65.4,10,114,10,173.8c0,1.4-1.1,2.5-2.5,2.5S5,175.1,5,173.8C5,111.3,55.8,60.4,118.3,60.4
			 M118.3,55.4C53.1,55.4,0,108.5,0,173.8c0,4.1,3.4,7.5,7.5,7.5s7.5-3.4,7.5-7.5c0-57,46.4-103.3,103.3-103.3
			c57,0,103.3,46.4,103.3,103.3c0,4.1,3.4,7.5,7.5,7.5c4.1,0,7.5-3.4,7.5-7.5C236.7,108.5,183.6,55.4,118.3,55.4L118.3,55.4z"/>
	</g>
	<g>
		<path class="st0" d="M118.3,143.6c16.7,0,30.2,13.6,30.2,30.2c0,1.4-1.1,2.5-2.5,2.5s-2.5-1.1-2.5-2.5c0-13.9-11.3-25.2-25.2-25.2
			s-25.2,11.3-25.2,25.2c0,1.4-1.1,2.5-2.5,2.5s-2.5-1.1-2.5-2.5C88.1,157.1,101.7,143.6,118.3,143.6 M118.3,138.6
			c-19.4,0-35.2,15.8-35.2,35.2c0,4.1,3.4,7.5,7.5,7.5s7.5-3.4,7.5-7.5c0-11.1,9.1-20.2,20.2-20.2c11.1,0,20.2,9.1,20.2,20.2
			c0,4.1,3.4,7.5,7.5,7.5s7.5-3.4,7.5-7.5C153.6,154.3,137.8,138.6,118.3,138.6L118.3,138.6z"/>
	</g>
	<g>
		<path class="st0" d="M118.3,102c39.6,0,71.8,32.2,71.8,71.8c0,1.4-1.1,2.5-2.5,2.5c-1.4,0-2.5-1.1-2.5-2.5
			c0-36.8-30-66.8-66.8-66.8c-36.8,0-66.8,30-66.8,66.8c0,1.4-1.1,2.5-2.5,2.5c-1.4,0-2.5-1.1-2.5-2.5
			C46.6,134.2,78.8,102,118.3,102 M118.3,97c-42.3,0-76.8,34.4-76.8,76.8c0,4.1,3.4,7.5,7.5,7.5s7.5-3.4,7.5-7.5
			c0-34.1,27.7-61.8,61.8-61.8s61.8,27.7,61.8,61.8c0,4.1,3.4,7.5,7.5,7.5c4.1,0,7.5-3.4,7.5-7.5C195.1,131.4,160.7,97,118.3,97
			L118.3,97z"/>
	</g>
</g>
</svg>
