<?xml version="1.0" encoding="utf-8"?>
<!-- Generator: Adobe Illustrator 22.0.0, SVG Export Plug-In . SVG Version: 6.00 Build 0)  -->
<svg version="1.1" id="Capa_1" xmlns="http://www.w3.org/2000/svg" xmlns:xlink="http://www.w3.org/1999/xlink" x="0px" y="0px"
	 viewBox="0 0 221 221" style="enable-background:new 0 0 221 221;" xml:space="preserve">
<style type="text/css">
	.st0{fill:#FFFFFF;}
</style>
<g>
	<path class="st0" d="M111.2,5c3.5,0,6.5,2.5,7.1,6c2.6,16.8,21.6,44.1,36.8,66l0.1,0.2c3.3,4.8,6.5,9.3,9.3,13.5
		c5.1,7.5,9.2,15.6,12.1,23.9c5.4,15.2,6.7,30.7,3.7,44.9c-4,19-15.8,35.8-32.4,46.1c-11.2,6.9-24.1,10.5-37.3,10.5
		c-13.2,0-26.2-3.7-37.4-10.6l0,0l0,0l-0.1,0l-0.1,0l-0.1-0.1l-0.1,0c-21-13.1-33.5-35.7-33.6-60.5c0-25.2,13.5-48.7,35.1-61.4
		c0.8-0.4,1.6-0.7,2.4-0.7c2.3,0,4.3,1.6,4.7,3.9c0.9,4.5,4,7.2,8.5,7.2c2.3,0,4.7-1.1,6.4-2.9c0.9-1,2.4-3,2.2-5.8l0,0l0,0
		c-0.2-2.6-1.3-5.2-2.4-7.9l-0.2-0.5c-1.3-3.2-2.4-6.5-3.3-9.9c-2.7-10.7-3-21.8-0.7-32c1.1-5.1,3-10.3,5.9-15.9
		c2.3-4.5,6-9.2,7.9-11.2l0.7-0.8C107.8,5.7,109.4,5,111.2,5 M103.5,84.8c0.2,3.6-1,6.9-3.6,9.6c-2.7,2.8-6.3,4.4-10,4.4
		c-4.9,0-9-2.2-11.4-6.1l-2.8-4.6l-4.4,3.2c-17,12.5-27.1,32.4-27.1,53.5c0,23.1,11.8,44.2,31.4,56.4l0.1,0l0,0l0,0l0,0l0,0
		c10.4,6.4,22.4,9.8,34.7,9.8c12.3,0,24.3-3.4,34.7-9.8c15.5-9.6,26.5-25.2,30.2-42.9c2.8-13.3,1.6-27.9-3.5-42.2
		c-2.8-7.9-6.7-15.6-11.5-22.7c-2.8-4.2-6-8.8-9.4-13.6c-14.6-21.1-31.2-44.9-36.4-62.6l-2.9-9.9l-6,8.4c-1.4,1.9-2.5,3.8-3.4,5.5
		c-2.7,5.2-4.5,10-5.5,14.7c-2.1,9.5-1.8,19.7,0.7,29.7c0.8,3.1,1.8,6.2,3.1,9.2l0.2,0.5C102,78.2,103.3,81.3,103.5,84.8 M111.2,0
		c-3.5,0-6.9,1.6-9.2,4.3l0,0c-2,2.2-6,7.3-8.6,12.3c-3.1,6-5.2,11.6-6.4,17.2c-2.4,11-2.1,22.8,0.8,34.3c0.9,3.6,2.1,7.2,3.5,10.6
		l0.2,0.5c1,2.3,1.9,4.6,2,6.3c0.1,1-0.6,1.8-0.9,2.1c-0.7,0.8-1.8,1.3-2.7,1.3c-2,0-3.1-1-3.6-3.2c-0.9-4.6-4.9-8-9.6-8
		c-1.7,0-3.4,0.5-5,1.4c-23.2,13.6-37.6,38.8-37.6,65.8c0.1,26.5,13.5,50.7,35.9,64.7c0.1,0.1,0.2,0.1,0.3,0.2l0.1,0.1
		c12,7.4,25.8,11.3,40,11.3c14.2,0,28-3.9,40-11.3c17.8-11,30.4-29,34.7-49.3c3.2-15.1,1.8-31.6-3.9-47.6c-3.1-8.7-7.3-17.1-12.7-25
		c-2.9-4.2-6.1-8.8-9.4-13.7c-14.1-20.4-33.5-48.2-36-63.9C122.3,4.3,117.2,0,111.2,0L111.2,0z M90,103.8c5.1,0,10-2.2,13.6-6
		c3.5-3.7,5.2-8.4,4.9-13.4c-0.3-4.3-1.8-7.9-3.2-11.1l-0.2-0.5c-1.1-2.8-2.1-5.6-2.8-8.5c-2.3-9.2-2.5-18.7-0.6-27.4
		c0.9-4.3,2.6-8.7,5-13.5c0.9-1.7,2-3.4,3-4.9c5.4,18.5,22.1,42.6,37.1,64.1c3.4,4.8,6.5,9.4,9.3,13.5c4.6,6.8,8.3,14.1,11,21.6
		c4.8,13.5,5.9,27.1,3.3,39.5c-3.4,16.3-13.6,30.8-27.9,39.6c-9.6,5.9-20.7,9.1-32.1,9.1c-11.4,0-22.5-3.1-32.1-9.1
		c0,0-0.1-0.1-0.1-0.1c-18.2-11.3-29-30.8-29.1-52.1c0-19.6,9.5-38,25.1-49.4C77.5,100.6,83.2,103.8,90,103.8L90,103.8z"/>
</g>
</svg>
