<?xml version="1.0" encoding="utf-8"?>
<!-- Generator: Adobe Illustrator 22.0.0, SVG Export Plug-In . SVG Version: 6.00 Build 0)  -->
<svg version="1.1" id="Capa_1" xmlns="http://www.w3.org/2000/svg" xmlns:xlink="http://www.w3.org/1999/xlink" x="0px" y="0px"
	 viewBox="0 0 219.8 219.8" style="enable-background:new 0 0 219.8 219.8;" xml:space="preserve">
<style type="text/css">
	.st0{fill:#FFFFFF;}
</style>
<g>
	<g>
		<path class="st0" d="M109.9,188.5c1.4,0,2.5,1.1,2.5,2.5v21.3c0,1.4-1.1,2.5-2.5,2.5s-2.5-1.1-2.5-2.5V191
			C107.4,189.6,108.5,188.5,109.9,188.5 M109.9,183.5c-4.1,0-7.5,3.4-7.5,7.5v21.3c0,4.1,3.4,7.5,7.5,7.5c4.1,0,7.5-3.4,7.5-7.5V191
			C117.4,186.8,114,183.5,109.9,183.5L109.9,183.5z"/>
	</g>
	<g>
		<path class="st0" d="M109.9,5c1.4,0,2.5,1.1,2.5,2.5v21.3c0,1.4-1.1,2.5-2.5,2.5s-2.5-1.1-2.5-2.5V7.5C107.4,6.1,108.5,5,109.9,5
			 M109.9,0c-4.1,0-7.5,3.4-7.5,7.5v21.3c0,4.1,3.4,7.5,7.5,7.5c4.1,0,7.5-3.4,7.5-7.5V7.5C117.4,3.4,114,0,109.9,0L109.9,0z"/>
	</g>
	<g>
		<path class="st0" d="M52.6,164.7c0.4,0,1.1,0.1,1.8,0.7c0.6,0.6,0.7,1.4,0.7,1.8c0,0.4-0.1,1.1-0.7,1.8l-15.1,15.1
			c-0.5,0.5-1.1,0.7-1.8,0.7c-0.4,0-1.1-0.1-1.8-0.7c-0.6-0.6-0.7-1.4-0.7-1.8c0-0.4,0.1-1.1,0.7-1.8l15.1-15.1
			C51.4,164.8,52.2,164.7,52.6,164.7 M52.6,159.7c-1.9,0-3.8,0.7-5.3,2.2L32.2,177c-2.9,2.9-2.9,7.7,0,10.6c1.5,1.5,3.4,2.2,5.3,2.2
			c1.9,0,3.8-0.7,5.3-2.2l15.1-15.1c2.9-2.9,2.9-7.7,0-10.6C56.4,160.4,54.5,159.7,52.6,159.7L52.6,159.7z"/>
	</g>
	<g>
		<path class="st0" d="M182.3,35c0.4,0,1.1,0.1,1.8,0.7c1,1,1,2.6,0,3.5L169,54.3c-0.6,0.6-1.4,0.7-1.8,0.7c-0.4,0-1.1-0.1-1.8-0.7
			c-1-1-1-2.6,0-3.5l15.1-15.1C181.2,35.1,181.9,35,182.3,35 M182.3,30c-1.9,0-3.8,0.7-5.3,2.2l-15.1,15.1c-2.9,2.9-2.9,7.7,0,10.6
			c1.5,1.5,3.4,2.2,5.3,2.2c1.9,0,3.8-0.7,5.3-2.2l15.1-15.1c2.9-2.9,2.9-7.7,0-10.6C186.1,30.7,184.2,30,182.3,30L182.3,30z"/>
	</g>
	<g>
		<path class="st0" d="M28.8,107.4c1.4,0,2.5,1.1,2.5,2.5s-1.1,2.5-2.5,2.5H7.5c-1.4,0-2.5-1.1-2.5-2.5s1.1-2.5,2.5-2.5H28.8
			 M28.8,102.4H7.5c-4.1,0-7.5,3.4-7.5,7.5s3.4,7.5,7.5,7.5h21.3c4.1,0,7.5-3.4,7.5-7.5S33,102.4,28.8,102.4L28.8,102.4z"/>
	</g>
	<g>
		<path class="st0" d="M212.3,107.4c1.4,0,2.5,1.1,2.5,2.5s-1.1,2.5-2.5,2.5H191c-1.4,0-2.5-1.1-2.5-2.5s1.1-2.5,2.5-2.5H212.3
			 M212.3,102.4H191c-4.1,0-7.5,3.4-7.5,7.5s3.4,7.5,7.5,7.5h21.3c4.1,0,7.5-3.4,7.5-7.5C219.8,105.8,216.4,102.4,212.3,102.4
			L212.3,102.4z"/>
	</g>
	<g>
		<path class="st0" d="M37.5,35c0.4,0,1.1,0.1,1.8,0.7l15.1,15.1c0.6,0.6,0.7,1.4,0.7,1.8c0,0.4-0.1,1.1-0.7,1.8
			c-0.6,0.6-1.4,0.7-1.8,0.7c-0.4,0-1.1-0.1-1.8-0.7L35.7,39.3c-0.6-0.6-0.7-1.4-0.7-1.8c0-0.4,0.1-1.1,0.7-1.8
			C36.4,35.1,37.1,35,37.5,35 M37.5,30c-1.9,0-3.8,0.7-5.3,2.2c-2.9,2.9-2.9,7.7,0,10.6l15.1,15.1c1.5,1.5,3.4,2.2,5.3,2.2
			c1.9,0,3.8-0.7,5.3-2.2c2.9-2.9,2.9-7.7,0-10.6L42.8,32.2C41.3,30.7,39.4,30,37.5,30L37.5,30z"/>
	</g>
	<g>
		<path class="st0" d="M167.2,164.7c0.4,0,1.1,0.1,1.8,0.7l15.1,15.1c0.6,0.6,0.7,1.4,0.7,1.8c0,0.4-0.1,1.1-0.7,1.8
			c-0.6,0.6-1.4,0.7-1.8,0.7s-1.1-0.1-1.8-0.7L165.4,169c-0.6-0.6-0.7-1.4-0.7-1.8c0-0.4,0.1-1.1,0.7-1.8
			C166.1,164.8,166.8,164.7,167.2,164.7 M167.2,159.7c-1.9,0-3.8,0.7-5.3,2.2c-2.9,2.9-2.9,7.7,0,10.6l15.1,15.1
			c1.5,1.5,3.4,2.2,5.3,2.2c1.9,0,3.8-0.7,5.3-2.2c2.9-2.9,2.9-7.7,0-10.6l-15.1-15.1C171.1,160.4,169.1,159.7,167.2,159.7
			L167.2,159.7z"/>
	</g>
	<g>
		<path class="st0" d="M109.9,56.5c29.4,0,53.4,23.9,53.4,53.4c0,29.4-23.9,53.4-53.4,53.4c-29.4,0-53.4-23.9-53.4-53.4
			C56.5,80.5,80.5,56.5,109.9,56.5 M109.9,158.3c26.7,0,48.4-21.7,48.4-48.4c0-26.7-21.7-48.4-48.4-48.4
			c-26.7,0-48.4,21.7-48.4,48.4C61.5,136.6,83.2,158.3,109.9,158.3 M109.9,51.5c-32.2,0-58.4,26.2-58.4,58.4
			c0,32.2,26.2,58.4,58.4,58.4c32.2,0,58.4-26.2,58.4-58.4C168.3,77.7,142.1,51.5,109.9,51.5L109.9,51.5z M109.9,153.3
			c-23.9,0-43.4-19.5-43.4-43.4c0-23.9,19.5-43.4,43.4-43.4c23.9,0,43.4,19.5,43.4,43.4C153.3,133.8,133.8,153.3,109.9,153.3
			L109.9,153.3z"/>
	</g>
</g>
</svg>
