<?xml version="1.0" encoding="utf-8"?>
<!-- Generator: Adobe Illustrator 22.0.0, SVG Export Plug-In . SVG Version: 6.00 Build 0)  -->
<svg version="1.1" id="Capa_1" xmlns="http://www.w3.org/2000/svg" xmlns:xlink="http://www.w3.org/1999/xlink" x="0px" y="0px"
	 viewBox="0 0 191.9 191.9" style="enable-background:new 0 0 191.9 191.9;" xml:space="preserve">
<style type="text/css">
	.st0{fill:#FCFCFC;}
</style>
<g>
	<g>
		<path class="st0" d="M7.5,29.9c0.7,0,1.6,0.3,2.2,1.2c5.6,9.7,16.1,15.8,27.3,15.8c11.2,0,21.7-6,27.3-15.8
			c0.4-0.8,1.3-1.2,2.2-1.2c0.9,0,1.7,0.5,2.2,1.2c5.6,9.7,16.1,15.8,27.3,15.8c11.2,0,21.7-6,27.3-15.8c0.4-0.8,1.3-1.2,2.2-1.2
			c0.9,0,1.7,0.5,2.2,1.2c5.6,9.7,16.1,15.8,27.3,15.8c11.2,0,21.7-6,27.3-15.8c0.5-0.8,1.3-1.2,2.2-1.2c0.4,0,0.9,0.1,1.2,0.3
			c0.8,0.5,1.1,1.1,1.2,1.5c0.1,0.4,0.2,1.1-0.3,1.9c-6.5,11.3-18.6,18.3-31.6,18.3c-9.6,0-19.1-3.9-25.9-10.8l-3.5-3.6l-3.5,3.6
			C115,48,105.6,51.9,95.9,51.9c-9.6,0-19.1-3.9-25.9-10.8l-3.5-3.6l-3.5,3.6C56.1,48,46.6,51.9,37,51.9c-13,0-25.1-7-31.6-18.3
			c-0.5-0.8-0.4-1.5-0.3-1.9c0.1-0.4,0.4-1.1,1.2-1.5C6.6,30,7.1,29.9,7.5,29.9 M7.5,24.9c-1.3,0-2.6,0.3-3.7,1
			C0.2,28-1.1,32.6,1,36.2C8.4,49,22.2,56.9,37,56.9c11.2,0,21.8-4.5,29.5-12.3c7.7,7.7,18.3,12.3,29.5,12.3
			c11.2,0,21.8-4.5,29.5-12.3c7.7,7.7,18.3,12.3,29.5,12.3c14.8,0,28.6-8,36-20.8c2.1-3.6,0.8-8.2-2.7-10.2c-1.2-0.7-2.5-1-3.7-1
			c-2.6,0-5.1,1.3-6.5,3.7c-4.7,8.2-13.5,13.3-23,13.3c-9.4,0-18.2-5.1-23-13.3c-1.3-2.3-3.8-3.7-6.5-3.7c0,0,0,0,0,0
			c-2.7,0-5.2,1.4-6.5,3.7c-4.7,8.2-13.5,13.3-23,13.3c-9.4,0-18.2-5.1-23-13.3c-1.3-2.3-3.8-3.7-6.5-3.7h0c-2.7,0-5.2,1.4-6.5,3.7
			c-4.7,8.2-13.5,13.3-23,13.3c-9.4,0-18.3-5.1-23-13.3C12.6,26.3,10.1,24.9,7.5,24.9L7.5,24.9z"/>
	</g>
	<g>
		<path class="st0" d="M7.5,84.9L7.5,84.9c0.9,0,1.7,0.5,2.2,1.2c5.6,9.7,16.1,15.8,27.3,15.8c11.2,0,21.7-6,27.3-15.8
			c0.4-0.8,1.3-1.2,2.2-1.2c0.9,0,1.7,0.5,2.2,1.2c5.6,9.7,16.1,15.8,27.3,15.8c11.2,0,21.7-6,27.3-15.8c0.4-0.8,1.3-1.2,2.2-1.2
			c0.9,0,1.7,0.5,2.2,1.2c5.6,9.7,16.1,15.8,27.3,15.8c11.2,0,21.7-6,27.3-15.8c0.5-0.8,1.3-1.2,2.2-1.2c0.4,0,0.9,0.1,1.2,0.3
			c1.2,0.7,1.6,2.2,0.9,3.4c-6.5,11.3-18.6,18.3-31.6,18.3c-9.6,0-19.1-3.9-25.9-10.8l-3.5-3.6l-3.5,3.6
			c-6.8,6.9-16.3,10.8-25.9,10.8c-9.6,0-19.1-3.9-25.9-10.8l-3.5-3.6l-3.5,3.6c-6.8,6.9-16.3,10.8-25.9,10.8c-13,0-25.1-7-31.6-18.3
			c-0.5-0.8-0.4-1.5-0.3-1.9c0.1-0.4,0.4-1.1,1.2-1.5C6.6,85,7.1,84.9,7.5,84.9 M7.5,79.9c-1.3,0-2.6,0.3-3.7,1
			C0.2,83-1.1,87.6,1,91.2c7.4,12.8,21.2,20.8,36,20.8c11.2,0,21.8-4.5,29.5-12.3c7.7,7.7,18.3,12.3,29.5,12.3
			c11.2,0,21.8-4.5,29.5-12.3c7.7,7.7,18.3,12.3,29.5,12.3c14.8,0,28.6-8,36-20.8c2.1-3.6,0.8-8.2-2.7-10.2c-1.2-0.7-2.5-1-3.7-1
			c-2.6,0-5.1,1.3-6.5,3.7c-4.7,8.2-13.5,13.3-23,13.3c-9.4,0-18.2-5.1-23-13.3c-1.3-2.3-3.8-3.7-6.5-3.7c0,0,0,0,0,0
			c-2.7,0-5.2,1.4-6.5,3.7c-4.7,8.2-13.5,13.3-23,13.3c-9.4,0-18.2-5.1-23-13.3c-1.3-2.3-3.8-3.7-6.5-3.7h0c-2.7,0-5.2,1.4-6.5,3.7
			c-4.7,8.2-13.5,13.3-23,13.3c-9.4,0-18.3-5.1-23-13.3C12.6,81.3,10.1,79.9,7.5,79.9L7.5,79.9z"/>
	</g>
	<g>
		<path class="st0" d="M7.5,139.9L7.5,139.9c0.9,0,1.7,0.5,2.2,1.2c5.6,9.7,16.1,15.8,27.3,15.8c11.2,0,21.7-6,27.3-15.8
			c0.4-0.8,1.3-1.2,2.2-1.2c0.9,0,1.7,0.5,2.2,1.2c5.6,9.7,16.1,15.8,27.3,15.8c11.2,0,21.7-6,27.3-15.8c0.4-0.8,1.3-1.2,2.2-1.2
			c0.9,0,1.7,0.5,2.2,1.2c5.6,9.7,16.1,15.8,27.3,15.8c11.2,0,21.7-6,27.3-15.8c0.5-0.8,1.3-1.2,2.2-1.2c0.4,0,0.9,0.1,1.2,0.3
			c1.2,0.7,1.6,2.2,0.9,3.4c-6.5,11.3-18.6,18.3-31.6,18.3c-9.6,0-19.1-3.9-25.9-10.8l-3.5-3.6l-3.5,3.6
			c-6.8,6.9-16.3,10.8-25.9,10.8c-9.6,0-19.1-3.9-25.9-10.8l-3.5-3.6l-3.5,3.6c-6.8,6.9-16.3,10.8-25.9,10.8c-13,0-25.1-7-31.6-18.3
			c-0.5-0.8-0.4-1.5-0.3-1.9c0.1-0.4,0.4-1.1,1.2-1.5C6.6,140,7.1,139.9,7.5,139.9 M7.5,134.9c-1.3,0-2.6,0.3-3.7,1
			c-3.6,2.1-4.8,6.7-2.7,10.2c7.4,12.8,21.2,20.8,36,20.8c11.2,0,21.8-4.5,29.5-12.3c7.7,7.7,18.3,12.3,29.5,12.3
			c11.2,0,21.8-4.5,29.5-12.3c7.7,7.7,18.3,12.3,29.5,12.3c14.8,0,28.6-8,36-20.8c2.1-3.6,0.8-8.2-2.7-10.2c-1.2-0.7-2.5-1-3.7-1
			c-2.6,0-5.1,1.3-6.5,3.7c-4.7,8.2-13.5,13.3-23,13.3c-9.4,0-18.2-5.1-23-13.3c-1.3-2.3-3.8-3.7-6.5-3.7c0,0,0,0,0,0
			c-2.7,0-5.2,1.4-6.5,3.7c-4.7,8.2-13.5,13.3-23,13.3c-9.4,0-18.2-5.1-23-13.3c-1.3-2.3-3.8-3.7-6.5-3.7h0c-2.7,0-5.2,1.4-6.5,3.7
			c-4.7,8.2-13.5,13.3-23,13.3c-9.4,0-18.3-5.1-23-13.3C12.6,136.3,10.1,134.9,7.5,134.9L7.5,134.9z"/>
	</g>
</g>
</svg>
